# File created by Blade
# Date/Time:  Thu Jan 22 19:18:16 2015
# Frame Rate: 120.000 fps
#------------------------------------------------------
:FULLY-SPECIFIED
:DEGREES
729
root 1.920323 32.094873 -7.142052 98.493679 -2.320840 4.503734
RightUpLeg -102.864533 -21.486421 -5.941883
RightLeg 2.562215 -0.000000 -0.000000
RightFoot -3.788689 -3.951510 17.681555
RightToeBase 6.688856 -0.000000 -0.000000
LeftUpLeg -104.956255 13.058357 2.897543
LeftLeg 5.706917 -0.000000 -0.000000
LeftFoot -2.976806 6.989081 -26.682918
LeftToeBase 8.431614 -0.000000 -0.000000
Spine 46.644033 -3.008947 -4.292511
RightShoulder 2.743010 23.792519 -38.345201
RightArm 57.916986 33.459167 55.806301
RightForeArm -41.829311 -0.000000 55.424627
RightHand 16.369936 -0.000000 -37.188913
RightHandThumb1 -24.326973 -0.000000 -32.862282
LeftShoulder -0.354893 -34.319003 47.833563
LeftArm 34.273704 -28.115112 -44.905843
LeftForeArm 52.807600 -0.000000 61.631495
LeftHand -5.863625 -0.000000 32.334964
LeftHandThumb1 -26.253704 0.000000 33.147579
Head -56.085339 -2.167716 2.284373
730
root 1.923799 32.091924 -7.160524 98.343055 -2.385438 4.520148
RightUpLeg -102.744379 -21.493215 -5.962850
RightLeg 2.488240 -0.000000 -0.000000
RightFoot -3.697738 -3.880341 17.651783
RightToeBase 6.717425 -0.000000 -0.000000
LeftUpLeg -104.809882 13.043244 2.924844
LeftLeg 5.697614 -0.000000 -0.000000
LeftFoot -2.980772 7.002037 -26.720200
LeftToeBase 8.477388 -0.000000 -0.000000
Spine 46.623812 -2.960532 -4.254035
RightShoulder 2.762268 23.704199 -38.317845
RightArm 57.981853 33.396397 55.709373
RightForeArm -41.735703 -0.000000 55.159727
RightHand 16.463719 -0.000000 -36.948745
RightHandThumb1 -24.326973 -0.000000 -32.862282
LeftShoulder -0.315749 -34.513780 47.856391
LeftArm 34.136946 -27.703227 -44.675848
LeftForeArm 52.563915 -0.000000 61.278345
LeftHand -5.776538 -0.000000 32.269066
LeftHandThumb1 -26.253704 0.000000 33.147579
Head -56.036268 -2.172818 2.322229
731
root 1.929640 32.088514 -7.179881 98.227357 -2.474102 4.548094
RightUpLeg -102.659657 -21.527307 -6.038587
RightLeg 2.440214 -0.000000 -0.000000
RightFoot -3.641262 -3.862241 17.671464
RightToeBase 6.731569 -0.000000 -0.000000
LeftUpLeg -104.697102 13.019583 2.970065
LeftLeg 5.708244 -0.000000 -0.000000
LeftFoot -3.012409 7.053091 -26.768351
LeftToeBase 8.468457 -0.000000 -0.000000
Spine 46.570091 -2.920071 -4.241389
RightShoulder 2.773070 23.661655 -38.317428
RightArm 57.953803 33.282878 55.591851
RightForeArm -41.701250 0.000000 54.923088
RightHand 16.290131 -0.000000 -37.072327
RightHandThumb1 -24.326973 -0.000000 -32.862282
LeftShoulder -0.329590 -34.578632 47.920013
LeftArm 34.181964 -27.380023 -44.614146
LeftForeArm 52.379846 -0.000000 60.918553
LeftHand -5.879447 -0.000000 32.287984
LeftHandThumb1 -26.253704 0.000000 33.147579
Head -55.979446 -2.161446 2.442689
732
root 1.935744 32.085244 -7.201652 98.132290 -2.579452 4.578234
RightUpLeg -102.612538 -21.575347 -6.146593
RightLeg 2.434165 -0.000000 -0.000000
RightFoot -3.605464 -3.859803 17.660065
RightToeBase 6.687041 -0.000000 -0.000000
LeftUpLeg -104.609333 12.993991 3.013176
LeftLeg 5.726555 -0.000000 -0.000000
LeftFoot -3.054342 7.138208 -26.787755
LeftToeBase 8.491612 -0.000000 -0.000000
Spine 46.496480 -2.929499 -4.268949
RightShoulder 2.798156 23.576525 -38.317600
RightArm 58.068622 33.214308 55.589211
RightForeArm -41.652931 -0.000000 54.667150
RightHand 16.445998 -0.000000 -37.007016
RightHandThumb1 -24.326973 -0.000000 -32.862282
LeftShoulder -0.299730 -34.609382 48.011994
LeftArm 34.044224 -27.138150 -44.492509
LeftForeArm 52.564563 -0.000000 60.601184
LeftHand -5.956565 -0.000000 32.398650
LeftHandThumb1 -26.253704 0.000000 33.147579
Head -55.931171 -2.148581 2.462519
733
root 1.942642 32.082797 -7.219678 98.034391 -2.688814 4.631120
RightUpLeg -102.558865 -21.649011 -6.239258
RightLeg 2.420610 -0.000000 -0.000000
RightFoot -3.562451 -3.808820 17.663989
RightToeBase 6.661423 -0.000000 -0.000000
LeftUpLeg -104.511540 12.936793 3.035269
LeftLeg 5.728475 -0.000000 -0.000000
LeftFoot -3.073455 7.203907 -26.828770
LeftToeBase 8.469006 -0.000000 -0.000000
Spine 46.428563 -2.909526 -4.248350
RightShoulder 2.806145 23.481987 -38.326429
RightArm 58.077350 33.140938 55.491209
RightForeArm -41.576614 -0.000000 54.449748
RightHand 16.378881 0.000000 -37.017329
RightHandThumb1 -24.326973 -0.000000 -32.862282
LeftShoulder -0.207311 -34.861269 48.034161
LeftArm 33.812803 -26.802450 -44.352808
LeftForeArm 51.930145 -0.000000 60.470393
LeftHand -5.751839 -0.000000 31.722081
LeftHandThumb1 -26.253704 0.000000 33.147579
Head -55.872765 -2.213222 2.517588
